<?xml version="1.0" standalone="no"?>
<!DOCTYPE svg PUBLIC "-//W3C//DTD SVG 20010904//EN"
 "http://www.w3.org/TR/2001/REC-SVG-20010904/DTD/svg10.dtd">
<svg version="1.0" xmlns="http://www.w3.org/2000/svg"
 width="269.000000pt" height="339.000000pt" viewBox="0 0 269.000000 339.000000"
 preserveAspectRatio="xMidYMid meet">

<g transform="translate(0.000000,339.000000) scale(0.100000,-0.100000)"
fill="#000000" stroke="none">
<path d="M1265 3290 c3 -5 0 -10 -8 -10 -8 0 15 -30 52 -66 l66 -66 -62 41
c-34 22 -65 45 -68 51 -3 5 -11 10 -17 10 -6 0 -1 -11 12 -25 13 -14 24 -33
25 -43 0 -9 5 -23 9 -31 5 -7 -15 4 -44 24 -33 23 -59 35 -72 32 -10 -3 -38 6
-61 20 -39 23 -37 24 11 7 15 -6 15 -5 2 8 -19 19 -74 38 -109 38 -25 -1 -24
-2 8 -16 53 -23 31 -26 -27 -4 -29 11 -62 20 -73 20 -19 0 -20 -2 -8 -16 11
-13 10 -17 -4 -25 -9 -6 -17 -16 -17 -23 0 -26 -50 -49 -93 -43 -30 4 -37 3
-28 -6 6 -6 45 -13 86 -15 41 -2 75 -8 75 -13 0 -5 -14 -9 -30 -9 -17 0 -39
-5 -50 -12 -15 -10 -26 -10 -53 0 -18 7 -44 12 -58 12 -23 -1 -23 -2 6 -15 30
-13 30 -13 -25 -13 -30 0 -49 2 -42 5 10 4 10 8 1 19 -19 23 -35 16 -74 -28
-36 -41 -37 -42 -33 -15 3 15 4 27 3 27 -9 0 -50 -45 -61 -66 -17 -33 -17 -43
-1 -63 7 -9 19 -29 26 -46 12 -29 12 -29 -6 -12 -25 22 -31 22 -29 0 1 -13 -7
-18 -27 -18 -16 -1 -32 -7 -37 -15 -12 -20 -7 -22 24 -11 34 14 35 -5 1 -21
-28 -13 -33 -28 -9 -28 8 0 12 -5 9 -11 -4 -6 -9 -8 -12 -5 -8 7 -43 -27 -37
-36 3 -5 1 -15 -5 -22 -6 -7 -12 -22 -14 -34 -2 -12 -12 -32 -24 -44 -11 -13
-23 -34 -26 -48 -3 -14 -15 -59 -27 -100 -25 -92 -43 -290 -38 -428 l3 -102
-55 -16 c-68 -20 -88 -37 -96 -83 -4 -20 -13 -43 -20 -52 -19 -21 -7 -80 17
-86 10 -3 26 -29 39 -66 22 -59 54 -102 94 -124 14 -8 20 -25 24 -68 3 -37 8
-52 13 -43 22 34 7 -23 -17 -66 -33 -59 -40 -133 -24 -256 7 -52 14 -124 16
-159 2 -34 13 -82 23 -106 11 -24 17 -46 14 -49 -9 -9 35 -124 97 -251 47 -95
58 -127 54 -153 -3 -20 -1 -32 6 -32 6 0 8 -4 5 -10 -3 -5 -1 -10 5 -10 16 0
36 -22 44 -48 4 -12 10 -21 14 -21 21 3 42 -2 42 -11 0 -15 35 -47 59 -55 12
-3 21 -11 21 -16 0 -5 11 -7 25 -3 17 4 32 1 43 -8 9 -9 24 -16 32 -16 101 -7
152 -14 199 -28 67 -19 229 -20 321 -1 56 11 186 51 200 61 19 14 47 30 136
76 40 21 92 53 116 70 69 49 200 201 222 256 10 27 27 58 36 69 25 30 39 72
49 150 5 40 27 114 50 172 23 57 41 105 41 107 0 3 23 28 51 56 42 43 56 50
78 46 46 -10 56 9 11 23 -23 7 -49 24 -62 42 l-22 29 -13 -22 c-13 -23 -13
-15 -14 275 0 86 6 147 12 130 9 -24 16 -6 23 62 7 64 22 134 30 143 4 3 11 1
15 -6 5 -9 14 -5 32 14 13 14 44 37 68 52 l43 25 -23 14 c-22 13 -21 14 21 9
25 -3 65 -1 90 3 l45 7 -36 18 c-24 12 -43 33 -58 62 -22 47 -27 69 -12 60 13
-8 3 50 -13 83 -10 19 -12 38 -7 57 5 20 2 46 -10 82 -10 28 -16 52 -14 52 13
0 35 -66 42 -121 5 -41 13 -64 21 -64 13 0 32 -23 32 -39 0 -6 -7 -1 -15 10
-17 23 -19 9 -4 -35 11 -31 33 -42 41 -18 3 6 3 33 0 59 -3 37 -8 47 -25 52
-16 4 -19 8 -9 14 8 6 13 30 13 68 0 183 -1 193 -15 201 -8 4 -16 19 -18 33
-2 14 -11 26 -21 28 -17 4 -17 2 -3 -27 23 -43 19 -53 -4 -11 -11 19 -19 43
-20 53 0 9 -4 17 -9 17 -15 0 -22 30 -11 49 7 14 5 23 -10 36 -14 12 -17 22
-11 34 7 10 3 25 -12 45 -12 17 -22 35 -22 41 -2 26 -19 45 -39 45 -13 0 -33
11 -46 25 -12 13 -26 22 -31 19 -4 -2 -24 10 -43 27 -25 22 -41 29 -54 24 -16
-7 -65 -7 -122 0 -14 2 -29 4 -35 4 -5 1 -4 5 4 10 8 5 39 8 70 6 50 -3 53 -2
36 11 -11 8 -34 27 -52 42 -17 15 -36 27 -40 27 -5 0 -33 24 -63 53 -49 49
-110 91 -110 77 0 -3 14 -14 31 -24 21 -13 27 -21 18 -26 -8 -5 -25 5 -46 29
-19 20 -45 41 -59 46 l-26 10 20 -25 c11 -13 39 -41 63 -61 24 -20 49 -41 54
-46 16 -17 -48 24 -75 48 -48 41 -79 52 -167 58 -22 1 -47 7 -55 12 -11 9 -96
18 -86 9 14 -12 89 -44 83 -36 -9 16 1 14 47 -10 22 -11 49 -22 59 -24 32 -6
145 -97 160 -129 7 -14 3 -12 -11 6 -23 30 -88 73 -96 65 -3 -3 -38 10 -78 29
-40 19 -82 36 -94 39 -12 2 -35 13 -50 23 -15 11 -38 25 -51 32 l-24 12 23
-33 23 -34 -29 27 c-41 38 -156 86 -139 58z m250 -48 c-3 -3 -11 0 -18 7 -9
10 -8 11 6 5 10 -3 15 -9 12 -12z m400 -162 c10 -11 16 -20 13 -20 -3 0 -13 9
-23 20 -10 11 -16 20 -13 20 3 0 13 -9 23 -20z m200 -100 c10 -11 16 -20 13
-20 -3 0 -13 9 -23 20 -10 11 -16 20 -13 20 3 0 13 -9 23 -20z m-722 -72 c-18
-22 -4 -18 27 7 8 7 24 15 34 19 19 7 19 6 2 -13 -18 -20 -18 -20 13 -8 26 10
40 8 84 -7 65 -23 100 -58 116 -115 7 -25 21 -61 32 -80 10 -20 19 -45 19 -56
0 -11 9 -48 19 -83 11 -34 15 -60 10 -56 -15 9 -10 -13 6 -26 9 -8 12 -16 6
-19 -5 -4 -12 -18 -16 -34 -6 -21 -3 -28 11 -33 45 -14 59 -24 25 -18 -23 4
-31 3 -27 -5 4 -6 12 -11 18 -11 5 0 21 -9 35 -20 20 -15 22 -20 9 -20 -10 0
-14 -4 -11 -10 8 -13 -1 -13 -28 1 -20 11 -20 10 3 -16 14 -15 42 -36 63 -46
36 -19 49 -43 26 -51 -7 -2 1 -22 18 -48 16 -25 36 -64 45 -87 15 -40 15 -41
-6 -47 -11 -3 -48 -6 -81 -6 -33 -1 -79 -5 -102 -9 -27 -5 -46 -4 -52 2 -8 8
-11 8 -11 0 0 -25 -53 -4 -89 36 -21 22 -42 41 -47 41 -4 0 -51 6 -104 14 -52
8 -133 20 -180 27 -86 13 -211 14 -264 3 -21 -5 -27 -3 -21 6 6 10 -2 11 -36
6 -24 -4 -55 -9 -69 -12 -45 -6 -65 -11 -84 -19 -11 -5 -27 -3 -39 5 -14 8
-52 12 -111 11 -99 -2 -156 -14 -198 -43 -36 -25 -62 -24 -48 1 5 11 10 28 9
38 0 16 -1 16 -9 -2 -17 -39 -10 6 9 54 20 55 17 161 -6 168 -7 3 -26 -17 -43
-44 l-31 -48 7 45 c7 53 68 237 97 295 11 22 38 66 60 99 40 56 42 58 79 53
21 -3 36 -2 33 3 -2 4 14 4 35 0 22 -4 43 -3 46 1 3 5 21 9 40 9 19 0 33 3 31
8 -6 9 21 11 153 12 78 1 111 6 130 17 13 9 40 17 58 18 21 1 40 9 50 21 15
19 15 19 8 0 -7 -19 -6 -19 13 -2 13 11 20 13 23 6 2 -8 22 2 50 23 25 20 49
33 53 29 3 -3 3 2 -1 12 -5 13 -4 17 4 12 6 -3 16 2 22 11 10 16 10 16 5 -2
-8 -32 28 -28 61 6 23 25 30 27 32 14 2 -9 -5 -26 -15 -37z m862 -38 c3 -5 2
-10 -4 -10 -5 0 -13 5 -16 10 -3 6 -2 10 4 10 5 0 13 -4 16 -10z m-38 -162
c-3 -8 -6 -5 -6 6 -1 11 2 17 5 13 3 -3 4 -12 1 -19z m208 -321 c4 -15 4 -27
1 -27 -8 0 -56 105 -56 123 0 18 47 -64 55 -96z m-88 61 c-3 -8 -6 -5 -6 6 -1
11 2 17 5 13 3 -3 4 -12 1 -19z m17 -120 c-4 -5 0 -14 7 -19 7 -4 10 -12 5
-16 -14 -14 -36 30 -35 71 l1 41 14 -33 c8 -18 12 -38 8 -44z m-1177 -234 c-3
-3 -12 -4 -19 -1 -8 3 -5 6 6 6 11 1 17 -2 13 -5z m823 -197 c15 -8 26 -22 27
-37 1 -14 6 -52 11 -85 8 -48 7 -181 -1 -315 0 -8 3 -32 7 -52 4 -25 3 -38 -4
-38 -7 0 -9 -13 -5 -37 6 -37 6 -37 -11 -18 -10 12 -15 14 -12 5 16 -46 17
-56 8 -70 -8 -13 -11 -13 -19 -1 -15 23 -22 -18 -11 -64 5 -22 9 -56 9 -75 -1
-34 -1 -34 -11 10 -10 45 -28 77 -28 50 0 -9 -5 -8 -15 6 -13 18 -14 15 -15
-31 0 -37 -3 -46 -10 -35 -7 10 -8 -12 -4 -72 5 -68 4 -88 -6 -88 -9 0 -11 13
-7 50 4 29 2 50 -3 50 -6 0 -10 -30 -10 -66 0 -41 -4 -63 -10 -59 -5 3 -11 18
-11 33 l-2 27 -5 -25 c-4 -24 -5 -24 -18 10 l-12 35 -1 -38 c-1 -20 -5 -45
-10 -55 -5 -9 -12 -26 -16 -36 -12 -40 -17 -5 -5 43 12 53 8 71 -16 71 -9 0
-14 -12 -15 -37 -1 -39 -3 -38 -13 10 -4 15 -11 25 -16 22 -6 -4 -10 9 -10 30
0 22 -4 34 -10 30 -5 -3 -10 -19 -10 -36 0 -16 -5 -29 -11 -29 -7 0 -8 19 -4
58 7 53 6 56 -9 41 -11 -10 -20 -43 -25 -95 l-8 -79 -2 77 c-1 81 -15 128 -38
128 -7 0 -13 -12 -14 -27 l0 -28 -11 25 c-6 15 -12 20 -15 12 -3 -6 -9 -10
-14 -6 -5 3 -9 -2 -9 -10 0 -22 -13 -20 -29 5 -10 18 -15 19 -22 8 -11 -18
-12 -2 -2 54 4 26 9 34 14 25 5 -8 9 -8 9 -2 0 6 -9 23 -20 37 -11 14 -20 29
-20 34 0 10 -133 146 -189 193 -23 19 -55 47 -71 61 l-29 26 39 37 c38 36 43
38 146 49 60 7 109 17 111 23 3 8 -14 10 -49 7 -52 -3 -52 -3 37 26 50 16 99
32 110 36 16 5 17 5 5 -4 -13 -9 -13 -11 1 -11 20 0 97 50 127 82 23 25 26 47
8 60 -14 10 13 38 36 38 10 0 32 7 48 15 63 33 149 43 190 22z m-303 -3 c-3
-3 -12 -4 -19 -1 -8 3 -5 6 6 6 11 1 17 -2 13 -5z m-880 -36 c6 -7 20 -40 32
-73 46 -121 71 -163 127 -206 59 -45 64 -54 34 -64 -26 -8 -25 -17 5 -45 17
-16 25 -34 25 -57 0 -58 -14 -73 -69 -73 -26 0 -74 -9 -106 -20 -67 -23 -68
-23 -60 -10 7 12 1 12 -49 0 -36 -8 -42 -6 -65 19 -25 27 -62 34 -89 17 -29
-18 -22 35 21 168 26 77 49 159 53 181 9 52 21 75 53 102 20 18 23 24 12 31
-10 8 -8 13 10 26 28 19 53 21 66 4z m1270 -465 c-3 -10 -5 -4 -5 12 0 17 2
24 5 18 2 -7 2 -21 0 -30z m-950 -265 c-17 -11 -65 -10 -72 2 -3 6 3 10 14 10
11 0 26 6 33 14 11 13 15 13 25 -2 10 -13 10 -17 0 -24z m128 -150 c35 -16 41
-52 22 -125 -9 -35 -14 -69 -11 -77 4 -12 -1 -14 -21 -10 l-27 5 22 -36 c18
-29 19 -34 5 -28 -15 5 -16 3 -5 -18 10 -21 8 -20 -12 4 l-24 29 -13 -26 c-9
-16 -18 -23 -25 -17 -15 12 -56 -5 -56 -24 0 -9 7 -32 15 -53 9 -23 10 -31 2
-21 -6 9 -23 21 -35 28 -22 12 -23 11 -18 -7 5 -16 2 -19 -24 -17 -19 1 -35
-4 -41 -14 -7 -12 -8 -9 -3 12 7 32 1 34 -26 7 -23 -23 -50 -26 -50 -6 0 11
-10 14 -42 11 -22 -3 -49 -7 -60 -10 -13 -5 -18 -1 -18 14 0 24 -16 36 -24 19
-3 -7 -4 -2 -3 12 1 18 7 24 20 22 10 -2 17 3 17 12 0 9 6 13 13 10 16 -6 136
21 149 34 15 15 -3 63 -26 73 -12 6 -30 27 -41 47 -18 33 -25 38 -70 42 -52 6
-52 8 15 33 8 3 2 6 -15 6 -55 2 -10 23 54 26 34 1 64 4 66 7 3 3 27 3 53 1
32 -2 67 4 112 20 78 29 91 31 125 15z m312 -20 c-3 -8 -6 -5 -6 6 -1 11 2 17
5 13 3 -3 4 -12 1 -19z m134 -81 c-13 -13 -15 31 -3 60 5 14 8 10 10 -16 2
-18 -1 -38 -7 -44z m-915 8 c-11 -8 -25 -15 -32 -15 -7 0 -19 -3 -28 -6 -9 -3
-16 -2 -16 3 0 14 40 32 70 32 24 0 24 0 6 -14z m-111 -5 c3 -5 -1 -10 -9 -10
-8 0 -18 5 -21 10 -3 6 1 10 9 10 8 0 18 -4 21 -10z m1072 -77 c-3 -10 -5 -2
-5 17 0 19 2 27 5 18 2 -10 2 -26 0 -35z m-1224 -54 c6 -5 6 -17 -1 -37 -9
-26 -8 -29 7 -25 11 3 21 -5 29 -22 18 -38 15 -46 -12 -34 -31 15 -46 49 -45
107 0 26 3 40 6 32 3 -8 10 -18 16 -21z m152 -108 c-3 -6 -11 -11 -17 -11 -6
0 -6 6 2 15 14 17 26 13 15 -4z m470 -11 c21 -40 19 -48 -5 -17 -19 23 -26 47
-15 47 2 0 11 -13 20 -30z m-380 -7 c-8 -35 -25 -54 -25 -29 0 9 -4 14 -10 11
-16 -10 -12 7 7 27 24 26 36 22 28 -9z m493 -38 c-3 -3 -9 2 -12 12 -6 14 -5
15 5 6 7 -7 10 -15 7 -18z"/>
<path d="M635 2337 c-4 -10 -5 -21 -1 -24 10 -10 18 4 13 24 -4 17 -4 17 -12
0z"/>
<path d="M760 2326 c0 -2 7 -6 15 -10 8 -3 15 -1 15 4 0 6 -7 10 -15 10 -8 0
-15 -2 -15 -4z"/>
<path d="M1834 2235 c11 -8 25 -15 30 -15 6 0 2 7 -8 15 -11 8 -25 15 -30 15
-6 0 -2 -7 8 -15z"/>
<path d="M1853 1040 c0 -30 2 -43 4 -27 2 15 2 39 0 55 -2 15 -4 2 -4 -28z"/>
<path d="M1790 1046 c0 -31 10 -56 21 -56 16 0 10 67 -6 74 -11 4 -15 -1 -15
-18z"/>
<path d="M1630 3186 c0 -2 8 -10 18 -17 15 -13 16 -12 3 4 -13 16 -21 21 -21
13z"/>
<path d="M703 3163 c9 -2 23 -2 30 0 6 3 -1 5 -18 5 -16 0 -22 -2 -12 -5z"/>
<path d="M760 3144 c0 -2 9 -8 20 -14 11 -6 20 -7 20 -2 0 6 -9 12 -20 15 -11
3 -20 3 -20 1z"/>
<path d="M2140 3006 c0 -2 7 -7 16 -10 8 -3 12 -2 9 4 -6 10 -25 14 -25 6z"/>
<path d="M2361 2763 c-1 -12 4 -25 9 -28 12 -7 12 2 0 30 -8 19 -9 19 -9 -2z"/>
<path d="M2430 2091 c0 -6 4 -13 10 -16 6 -3 7 1 4 9 -7 18 -14 21 -14 7z"/>
<path d="M2380 1929 c-56 -34 -80 -60 -80 -90 0 -30 13 -44 52 -54 26 -7 27
-6 21 32 -11 77 -11 78 26 78 48 0 68 -32 91 -145 18 -87 18 -100 5 -164 -8
-38 -22 -80 -30 -93 -9 -13 -14 -30 -12 -36 6 -18 45 51 62 108 51 177 59 285
24 329 -25 31 -69 56 -101 56 -13 0 -39 -10 -58 -21z"/>
<path d="M2260 1851 c-7 -15 -7 -21 0 -21 12 0 25 28 17 36 -3 3 -10 -4 -17
-15z"/>
<path d="M2271 1728 c-18 -50 -13 -96 14 -136 27 -39 33 -76 13 -70 -7 3 -19
15 -25 29 l-13 24 0 -27 c0 -18 5 -28 15 -28 8 0 25 -10 36 -21 17 -17 27 -20
52 -13 49 15 72 55 72 126 -1 53 -4 63 -28 84 -16 13 -39 24 -52 24 -13 0 -27
4 -30 10 -3 5 -14 14 -25 20 -15 8 -20 5 -29 -22z"/>
<path d="M2211 1664 c0 -11 3 -14 6 -6 3 7 2 16 -1 19 -3 4 -6 -2 -5 -13z"/>
</g>
</svg>
