<svg xmlns="http://www.w3.org/2000/svg" viewBox="0 0 1363.45 243.02"><defs><style>.cls-1{fill:#2b62f8;}</style></defs><g id="Camada_2" data-name="Camada 2"><g id="Camada_1-2" data-name="Camada 1"><rect class="cls-1" x="212.43" y="4.17" width="41.16" height="234.67"/><path class="cls-1" d="M66.1,194.69a38.71,38.71,0,0,1-14.82-8.52,29.42,29.42,0,0,1-7.85-12.86,53.93,53.93,0,0,1-2.27-15.82V4.17H0V157.84a106.62,106.62,0,0,0,4.71,32.51A64.07,64.07,0,0,0,19.88,215.9q10.47,10.77,27,16.86t39.94,6.08h93.83v-41H89.3Q75.35,197.82,66.1,194.69Z"/><path class="cls-1" d="M512.07,189.82a12.86,12.86,0,0,1-3.67,9.56Q504.74,203,498.12,203q-5.94,0-9.42-2.79a20.38,20.38,0,0,1-5.58-6.95L414.4,43.46q-7.33-20.16-20.06-31.81T357.19,0q-27.56,0-40.81,14.08t-13.26,37V238.84h41.16V53.19q0-6.25,3.67-9.91t10.64-3.64q10.11,0,14.65,10.08L442,199.56a92.85,92.85,0,0,0,8.38,18.08A56,56,0,0,0,462,231.37a46.64,46.64,0,0,0,16.05,8.69,70.51,70.51,0,0,0,21.45,3q27.21,0,40.64-14.09t13.43-37.37V4.17H512.07Z"/><path class="cls-1" d="M630.65,190q-8.73-7.83-8.73-21.73,0-28.5,35.93-28.51H774.71v-37.2H658.9Q623,102.56,623,74.75q0-13.56,8.37-21.56t27.21-8h117.9v-41H658.55q-20.92,0-35.75,4.7T598.38,22.08a51.48,51.48,0,0,0-14.13,20.34,71.31,71.31,0,0,0-4.53,25.72c0,126.75-.7,56.48-.7,106.73a72.68,72.68,0,0,0,4.36,25.38,50,50,0,0,0,14,20.34q9.6,8.52,24.42,13.38t35.76,4.87H776.8v-41H657.51Q639.36,197.82,630.65,190Z"/><polygon class="cls-1" points="1278.54 94.23 1278.57 94.27 1355.79 3.62 1305.44 3.62 1249.8 70.27 1275.66 97.61 1278.54 94.23"/><polygon class="cls-1" points="1275.44 138.83 1252.3 166.47 1314.53 238.69 1363.44 238.69 1275.44 138.83"/><rect class="cls-1" x="1040.18" y="4.17" width="41.16" height="234.67"/><path class="cls-1" d="M988,25.21a66.89,66.89,0,0,0-23.55-15.3Q950.18,4.18,930.3,4.17H809.61v41H932.05q16.74,0,24.59,9.21a32.93,32.93,0,0,1,7.85,22.08,37.5,37.5,0,0,1-1.92,12,30.84,30.84,0,0,1-5.75,10.26A27.91,27.91,0,0,1,946.7,106a37,37,0,0,1-15,2.78H846.94q-19.55,0-28.26,8.69T810,146v92.82h41.16V154c0-3.94,2-5.91,5.93-5.91H930.3q20.58,0,35.06-6.6a68,68,0,0,0,23.55-17A64.07,64.07,0,0,0,1002,100.82a90.6,90.6,0,0,0,4-26.42,83,83,0,0,0-4.36-26.77A59.33,59.33,0,0,0,988,25.21Z"/><polygon class="cls-1" points="1156.27 3.62 1106.12 3.62 1207.18 119.24 1105.42 238.69 1155.72 238.69 1159.83 233.86 1234.1 145.36 1257.49 117.83 1156.27 3.62"/></g></g></svg>